<svg xmlns="http://www.w3.org/2000/svg" xmlns:xlink="http://www.w3.org/1999/xlink" aria-hidden="true" role="img" class="iconify iconify--logos" width="31.88" height="32" preserveAspectRatio="xMidYMid meet" viewBox="0 0 256 257"><defs><linearGradient id="IconifyId1813088fe1fbc01eb4" x1="-.828%" x2="57.636%" y1="7.652%" y2="78.411%"><stop offset="0%" stop-color="#41D1DD"></stop><stop offset="100%" stop-color="#BD34FE"></stop></linearGradient><linearGradient id="IconifyId1813088fe1fbc01eb5" x1="43.376%" x2="50.316%" y1="2.242%" y2="2.242%"><stop offset="0%" stop-color="#FFBD4F"></stop><stop offset="4.304%" stop-color="#FF980E"></stop><stop offset="6.664%" stop-color="#FF8200"></stop><stop offset="13.555%" stop-color="#FF6D00"></stop><stop offset="14.6%" stop-color="#FF5F00"></stop><stop offset="100%" stop-color="#FF4F00"></stop></linearGradient></defs><path fill="url(#IconifyId1813088fe1fbc01eb4)" d="M255.153 37.955L168.893 252.75c-3.595 8.637-15.357 8.637-18.952 0L130.95 191.6l-65.243 61.15c-8.137 7.627-22.056.91-19.48-10.56l42.92-173.39c2.58-11.59 16.343-18.322 24.48-10.69l65.243 61.15 65.243-61.15c8.137-7.627 21.9-.91 19.48 10.56Z"></path><path fill="url(#IconifyId1813088fe1fbc01eb5)" d="M167.83 191.6l-36.88-53.09l-65.243 61.15c-8.137 7.627-22.056.91-19.48-10.56l42.92-173.39c1.29-5.8 5.82-10.52 11.34-12.34a14.34 14.34 0 0 0-3.86 3.68L43.07 133.61c-4.43 6.15.28 14.42 7.76 14.42h117.01Z"></path></svg>
